<?xml version="1.0" standalone="no"?>
<svg xmlns:xlink="http://www.w3.org/1999/xlink" id="wave" style="transform:rotate(0deg); transition: 0.3s" viewBox="0 0 1440 490" version="1.1" xmlns="http://www.w3.org/2000/svg"><defs><linearGradient id="sw-gradient-0" x1="0" x2="0" y1="1" y2="0"><stop stop-color="rgba(128, 0, 128, 1)" offset="0%"/><stop stop-color="rgba(65, 105, 225, 1)" offset="100%"/></linearGradient></defs><path style="transform:translate(0, 0px); opacity:1" fill="url(#sw-gradient-0)" d="M0,49L21.8,65.3C43.6,82,87,114,131,163.3C174.5,212,218,278,262,269.5C305.5,261,349,180,393,187.8C436.4,196,480,294,524,351.2C567.3,408,611,425,655,424.7C698.2,425,742,408,785,359.3C829.1,310,873,229,916,236.8C960,245,1004,343,1047,392C1090.9,441,1135,441,1178,441C1221.8,441,1265,441,1309,375.7C1352.7,310,1396,180,1440,147C1483.6,114,1527,180,1571,236.8C1614.5,294,1658,343,1702,375.7C1745.5,408,1789,425,1833,416.5C1876.4,408,1920,376,1964,302.2C2007.3,229,2051,114,2095,130.7C2138.2,147,2182,294,2225,351.2C2269.1,408,2313,376,2356,359.3C2400,343,2444,343,2487,343C2530.9,343,2575,343,2618,302.2C2661.8,261,2705,180,2749,187.8C2792.7,196,2836,294,2880,326.7C2923.6,359,2967,327,3011,334.8C3054.5,343,3098,392,3120,416.5L3141.8,441L3141.8,490L3120,490C3098.2,490,3055,490,3011,490C2967.3,490,2924,490,2880,490C2836.4,490,2793,490,2749,490C2705.5,490,2662,490,2618,490C2574.5,490,2531,490,2487,490C2443.6,490,2400,490,2356,490C2312.7,490,2269,490,2225,490C2181.8,490,2138,490,2095,490C2050.9,490,2007,490,1964,490C1920,490,1876,490,1833,490C1789.1,490,1745,490,1702,490C1658.2,490,1615,490,1571,490C1527.3,490,1484,490,1440,490C1396.4,490,1353,490,1309,490C1265.5,490,1222,490,1178,490C1134.5,490,1091,490,1047,490C1003.6,490,960,490,916,490C872.7,490,829,490,785,490C741.8,490,698,490,655,490C610.9,490,567,490,524,490C480,490,436,490,393,490C349.1,490,305,490,262,490C218.2,490,175,490,131,490C87.3,490,44,490,22,490L0,490Z"/><defs><linearGradient id="sw-gradient-1" x1="0" x2="0" y1="1" y2="0"><stop stop-color="rgba(128, 0, 128, 1)" offset="0%"/><stop stop-color="rgba(255, 46.879, 46.879, 1)" offset="100%"/></linearGradient></defs><path style="transform:translate(0, 50px); opacity:0.9" fill="url(#sw-gradient-1)" d="M0,196L21.8,204.2C43.6,212,87,229,131,204.2C174.5,180,218,114,262,98C305.5,82,349,114,393,122.5C436.4,131,480,114,524,138.8C567.3,163,611,229,655,253.2C698.2,278,742,261,785,261.3C829.1,261,873,278,916,302.2C960,327,1004,359,1047,383.8C1090.9,408,1135,425,1178,416.5C1221.8,408,1265,376,1309,367.5C1352.7,359,1396,376,1440,343C1483.6,310,1527,229,1571,196C1614.5,163,1658,180,1702,228.7C1745.5,278,1789,359,1833,351.2C1876.4,343,1920,245,1964,212.3C2007.3,180,2051,212,2095,204.2C2138.2,196,2182,147,2225,147C2269.1,147,2313,196,2356,179.7C2400,163,2444,82,2487,40.8C2530.9,0,2575,0,2618,73.5C2661.8,147,2705,294,2749,367.5C2792.7,441,2836,441,2880,367.5C2923.6,294,2967,147,3011,98C3054.5,49,3098,98,3120,122.5L3141.8,147L3141.8,490L3120,490C3098.2,490,3055,490,3011,490C2967.3,490,2924,490,2880,490C2836.4,490,2793,490,2749,490C2705.5,490,2662,490,2618,490C2574.5,490,2531,490,2487,490C2443.6,490,2400,490,2356,490C2312.7,490,2269,490,2225,490C2181.8,490,2138,490,2095,490C2050.9,490,2007,490,1964,490C1920,490,1876,490,1833,490C1789.1,490,1745,490,1702,490C1658.2,490,1615,490,1571,490C1527.3,490,1484,490,1440,490C1396.4,490,1353,490,1309,490C1265.5,490,1222,490,1178,490C1134.5,490,1091,490,1047,490C1003.6,490,960,490,916,490C872.7,490,829,490,785,490C741.8,490,698,490,655,490C610.9,490,567,490,524,490C480,490,436,490,393,490C349.1,490,305,490,262,490C218.2,490,175,490,131,490C87.3,490,44,490,22,490L0,490Z"/></svg>