<?xml version="1.0" standalone="no"?>
<svg xmlns:xlink="http://www.w3.org/1999/xlink" id="wave" style="transform:rotate(180deg); transition: 0.3s" viewBox="0 0 1440 490" version="1.1" xmlns="http://www.w3.org/2000/svg"><defs><linearGradient id="sw-gradient-0" x1="0" x2="0" y1="1" y2="0"><stop stop-color="rgba(128, 0, 128, 1)" offset="0%"/><stop stop-color="rgba(65, 105, 225, 1)" offset="100%"/></linearGradient></defs><path style="transform:translate(0, 0px); opacity:1" fill="url(#sw-gradient-0)" d="M0,49L40,114.3C80,180,160,310,240,359.3C320,408,400,376,480,343C560,310,640,278,720,228.7C800,180,880,114,960,81.7C1040,49,1120,49,1200,40.8C1280,33,1360,16,1440,65.3C1520,114,1600,229,1680,253.2C1760,278,1840,212,1920,187.8C2000,163,2080,180,2160,171.5C2240,163,2320,131,2400,147C2480,163,2560,229,2640,253.2C2720,278,2800,261,2880,277.7C2960,294,3040,343,3120,326.7C3200,310,3280,229,3360,220.5C3440,212,3520,278,3600,310.3C3680,343,3760,343,3840,326.7C3920,310,4000,278,4080,220.5C4160,163,4240,82,4320,40.8C4400,0,4480,0,4560,65.3C4640,131,4720,261,4800,261.3C4880,261,4960,131,5040,122.5C5120,114,5200,229,5280,245C5360,261,5440,180,5520,196C5600,212,5680,327,5720,383.8L5760,441L5760,490L5720,490C5680,490,5600,490,5520,490C5440,490,5360,490,5280,490C5200,490,5120,490,5040,490C4960,490,4880,490,4800,490C4720,490,4640,490,4560,490C4480,490,4400,490,4320,490C4240,490,4160,490,4080,490C4000,490,3920,490,3840,490C3760,490,3680,490,3600,490C3520,490,3440,490,3360,490C3280,490,3200,490,3120,490C3040,490,2960,490,2880,490C2800,490,2720,490,2640,490C2560,490,2480,490,2400,490C2320,490,2240,490,2160,490C2080,490,2000,490,1920,490C1840,490,1760,490,1680,490C1600,490,1520,490,1440,490C1360,490,1280,490,1200,490C1120,490,1040,490,960,490C880,490,800,490,720,490C640,490,560,490,480,490C400,490,320,490,240,490C160,490,80,490,40,490L0,490Z"/><defs><linearGradient id="sw-gradient-1" x1="0" x2="0" y1="1" y2="0"><stop stop-color="rgba(128, 0, 128, 1)" offset="0%"/><stop stop-color="rgba(255, 46.879, 46.879, 1)" offset="100%"/></linearGradient></defs><path style="transform:translate(0, 50px); opacity:0.9" fill="url(#sw-gradient-1)" d="M0,196L40,163.3C80,131,160,65,240,73.5C320,82,400,163,480,228.7C560,294,640,343,720,334.8C800,327,880,261,960,269.5C1040,278,1120,359,1200,392C1280,425,1360,408,1440,375.7C1520,343,1600,294,1680,277.7C1760,261,1840,278,1920,236.8C2000,196,2080,98,2160,114.3C2240,131,2320,261,2400,302.2C2480,343,2560,294,2640,245C2720,196,2800,147,2880,122.5C2960,98,3040,98,3120,138.8C3200,180,3280,261,3360,302.2C3440,343,3520,343,3600,334.8C3680,327,3760,310,3840,269.5C3920,229,4000,163,4080,171.5C4160,180,4240,261,4320,318.5C4400,376,4480,408,4560,367.5C4640,327,4720,212,4800,196C4880,180,4960,261,5040,285.8C5120,310,5200,278,5280,228.7C5360,180,5440,114,5520,114.3C5600,114,5680,180,5720,212.3L5760,245L5760,490L5720,490C5680,490,5600,490,5520,490C5440,490,5360,490,5280,490C5200,490,5120,490,5040,490C4960,490,4880,490,4800,490C4720,490,4640,490,4560,490C4480,490,4400,490,4320,490C4240,490,4160,490,4080,490C4000,490,3920,490,3840,490C3760,490,3680,490,3600,490C3520,490,3440,490,3360,490C3280,490,3200,490,3120,490C3040,490,2960,490,2880,490C2800,490,2720,490,2640,490C2560,490,2480,490,2400,490C2320,490,2240,490,2160,490C2080,490,2000,490,1920,490C1840,490,1760,490,1680,490C1600,490,1520,490,1440,490C1360,490,1280,490,1200,490C1120,490,1040,490,960,490C880,490,800,490,720,490C640,490,560,490,480,490C400,490,320,490,240,490C160,490,80,490,40,490L0,490Z"/></svg>